<svg width="254" height="138" viewBox="0 0 254 138" fill="none" xmlns="http://www.w3.org/2000/svg">
<path d="M146.857 41.399C143.056 41.3024 117.855 41.6163 114.065 41.399L108.731 55.2832H141.583L146.857 41.399Z" fill="#FFD1A6"/>
<path d="M217.957 137.466L246.549 61.4406H194.446L212.695 13.3771H248.118L253.223 0H201.132L171.84 77.9567H223.919L207.541 121.529H155.463L149.464 137.466H217.957Z" fill="#76B0FF"/>
<path d="M142.307 137.466L154.063 106.196H177.658L183.789 89.8971H160.194L194.181 0H177.634L143.756 89.8971H128.573L139.519 61.4406H28.5797L0 137.478H142.307V137.466ZM137.625 106.196L131.868 121.529H22.4124L39.5145 77.9567H116.636L106.052 106.196H137.625Z" fill="#FF7482"/>
</svg>
