<svg width="254" height="170" viewBox="0 0 254 170" fill="none" xmlns="http://www.w3.org/2000/svg">
<path d="M70.8768 163.627H64.2649V169.171H62.5602V163.627H56V162.189H70.8768V163.627ZM69.2238 157.21C69.2238 159.417 66.8476 160.752 63.4384 160.752C59.9775 160.752 57.653 159.366 57.653 157.21C57.653 155.002 59.9775 153.616 63.4384 153.616C66.8476 153.616 69.2238 155.002 69.2238 157.21ZM59.4093 157.21C59.4093 158.544 61.0106 159.417 63.4384 159.417C65.8662 159.417 67.4675 158.596 67.4675 157.21C67.4675 155.824 65.8662 155.002 63.4384 155.002C61.0106 155.002 59.3576 155.824 59.4093 157.21Z" fill="#1A1A1A"/>
<path d="M80.6396 160.341H74.8026V163.883C77.437 163.883 79.7615 163.781 82.4476 163.319L82.6025 164.705C79.7098 165.167 77.282 165.321 74.3893 165.321H72.9946V159.006H78.8317V155.875H72.9946V154.489H80.6396V160.341ZM85.5985 169.222H83.8939V153H85.5985V169.222Z" fill="#1A1A1A"/>
<path d="M107.552 161.06H100.94V162.497H105.641V166.245H96.188V167.682H106.106V169.017H94.4833V165.013H103.936V163.729H94.4833V162.446H99.2356V161.06H92.7271V159.674H107.552V161.06ZM105.796 158.493H94.6383V153.565H105.641V154.951H96.3946V157.107H105.796V158.493Z" fill="#1A1A1A"/>
<path d="M119.485 163.729L119.588 164.961C115.92 165.68 111.943 165.68 109.05 165.68L108.844 164.243C111.84 164.294 115.92 164.243 119.485 163.729ZM118.503 157.98C118.503 160.238 116.643 161.83 114.061 161.83C111.478 161.83 109.618 160.238 109.618 157.98C109.618 155.721 111.478 154.129 114.061 154.129C116.643 154.129 118.503 155.721 118.503 157.98ZM111.375 157.98C111.375 159.417 112.511 160.341 114.112 160.341C115.714 160.341 116.85 159.417 116.85 157.98C116.85 156.542 115.662 155.618 114.112 155.618C112.563 155.618 111.323 156.542 111.375 157.98ZM122.222 169.222H120.518V153H122.222V169.222Z" fill="#1A1A1A"/>
<path d="M137.616 165.115H130.022V154.591H137.616V165.115ZM131.675 163.729H135.911V155.977H131.675V163.729ZM142.058 159.314H144.692V160.752H142.058V169.12H140.353V153H142.058V159.314Z" fill="#1A1A1A"/>
<path d="M160.292 162.138H145.467V160.752H160.292V162.138ZM158.691 156.44C158.691 158.339 156.47 159.468 152.854 159.468C149.29 159.468 147.017 158.339 147.017 156.44C147.017 154.489 149.29 153.359 152.854 153.359C156.418 153.359 158.691 154.489 158.691 156.44ZM158.484 168.966H147.223V163.575H158.484V168.966ZM148.825 156.44C148.825 157.518 150.374 158.134 152.854 158.134C155.333 158.134 156.883 157.518 156.883 156.44C156.883 155.31 155.333 154.694 152.854 154.694C150.374 154.694 148.825 155.31 148.825 156.44ZM148.928 167.579H156.78V164.961H148.928V167.579Z" fill="#1A1A1A"/>
<path d="M172.225 163.729L172.328 164.961C168.661 165.68 164.683 165.68 161.79 165.68L161.584 164.243C164.58 164.294 168.661 164.243 172.225 163.729ZM171.243 157.98C171.243 160.238 169.384 161.83 166.801 161.83C164.218 161.83 162.359 160.238 162.359 157.98C162.359 155.721 164.218 154.129 166.801 154.129C169.435 154.129 171.243 155.721 171.243 157.98ZM164.115 157.98C164.115 159.417 165.251 160.341 166.853 160.341C168.454 160.341 169.59 159.417 169.59 157.98C169.59 156.542 168.402 155.618 166.853 155.618C165.303 155.618 164.115 156.542 164.115 157.98ZM174.962 169.222H173.258V153H174.962V169.222Z" fill="#1A1A1A"/>
<path d="M183.021 166.142L182.091 164.807C186.378 162.703 188.341 159.776 188.651 156.08H182.814V154.694H190.356C190.356 159.417 188.548 163.421 183.021 166.142ZM195.676 169.171H193.972V160.803H190.304V159.417H193.972V153H195.676V169.171Z" fill="#1A1A1A"/>
<path d="M206.73 160.341H200.893V163.883C203.528 163.883 205.852 163.781 208.538 163.319L208.693 164.705C205.801 165.167 203.373 165.321 200.48 165.321H199.085V159.006H204.922V155.875H199.034V154.489H206.679V160.341H206.73ZM211.741 169.222H210.036V153H211.741V169.222Z" fill="#1A1A1A"/>
<path d="M146.857 41.399C143.056 41.3024 117.855 41.6163 114.065 41.399L108.731 55.2832H141.583L146.857 41.399Z" fill="#FFD1A6"/>
<path d="M217.957 137.466L246.549 61.4406H194.446L212.695 13.3771H248.118L253.223 0H201.132L171.84 77.9567H223.919L207.541 121.529H155.463L149.464 137.466H217.957Z" fill="#76B0FF"/>
<path d="M142.307 137.466L154.063 106.196H177.658L183.789 89.8971H160.194L194.181 0H177.634L143.756 89.8971H128.573L139.519 61.4406H28.5797L0 137.478H142.307V137.466ZM137.625 106.196L131.868 121.529H22.4124L39.5145 77.9567H116.636L106.052 106.196H137.625Z" fill="#FF7482"/>
</svg>
